<svg xmlns="http://www.w3.org/2000/svg" version="1.1" xmlns:xlink="http://www.w3.org/1999/xlink" xmlns:svgjs="http://svgjs.com/svgjs" width="1440" height="560" preserveAspectRatio="none" viewBox="0 0 1440 560"><g mask="url(&quot;#SvgjsMask1020&quot;)" fill="none"><rect width="1440" height="560" x="0" y="0" fill="url(#SvgjsLinearGradient1021)"></rect><path d="M1008.3829011178668 553.6411144752959L1119.3072732375542 591.8354387829226 1157.5015975451809 480.91106666323515 1046.5772254254935 442.7167423556085z" fill="rgba(28, 83, 142, 0.4)" class="triangle-float3"></path><path d="M1066.255166952232 433.90930117387484L934.0919954835199 357.6048585494593 989.9507243278165 566.072472642587z" fill="rgba(28, 83, 142, 0.4)" class="triangle-float3"></path><path d="M166.07 484.31 a185.95 185.95 0 1 0 371.9 0 a185.95 185.95 0 1 0 -371.9 0z" fill="rgba(28, 83, 142, 0.4)" class="triangle-float1"></path><path d="M793.0749249081662 253.81646027577156L914.2218449816608 162.52570799691023 822.9310927027994 41.378787923415615 701.7841726293049 132.66954020227695z" fill="rgba(28, 83, 142, 0.4)" class="triangle-float1"></path><path d="M1203.79 318.86 a132.7 132.7 0 1 0 265.4 0 a132.7 132.7 0 1 0 -265.4 0z" fill="rgba(28, 83, 142, 0.4)" class="triangle-float1"></path><path d="M1095.32,164.772C1114.028,165.144,1133.185,158.286,1142.52,142.069C1151.837,125.882,1148.907,105.385,1138.384,89.955C1129.057,76.278,1111.874,72.76,1095.32,72.856C1078.983,72.951,1062.051,76.775,1053.112,90.45C1043.369,105.354,1042.468,124.773,1051.261,140.256C1060.157,155.92,1077.31,164.414,1095.32,164.772" fill="rgba(28, 83, 142, 0.4)" class="triangle-float1"></path></g><defs><mask id="SvgjsMask1020"><rect width="1440" height="560" fill="#ffffff"></rect></mask><linearGradient x1="15.28%" y1="-39.29%" x2="84.72%" y2="139.29%" gradientUnits="userSpaceOnUse" id="SvgjsLinearGradient1021"><stop stop-color="#0e2a47" offset="0"></stop><stop stop-color="#00459e" offset="1"></stop></linearGradient><style>
            @keyframes float1 {
                0%{transform: translate(0, 0)}
                50%{transform: translate(-10px, 0)}
                100%{transform: translate(0, 0)}
            }

            .triangle-float1 {
                animation: float1 5s infinite;
            }

            @keyframes float2 {
                0%{transform: translate(0, 0)}
                50%{transform: translate(-5px, -5px)}
                100%{transform: translate(0, 0)}
            }

            .triangle-float2 {
                animation: float2 4s infinite;
            }

            @keyframes float3 {
                0%{transform: translate(0, 0)}
                50%{transform: translate(0, -10px)}
                100%{transform: translate(0, 0)}
            }

            .triangle-float3 {
                animation: float3 6s infinite;
            }
        </style></defs></svg>