<svg width="64" height="64" viewBox="0 0 64 64" fill="none" xmlns="http://www.w3.org/2000/svg">
<g clip-path="url(#clip0_26_314)">
<path d="M31.9947 64C31.1387 64 30.2853 63.776 29.536 63.3413L21.7067 58.7093C20.5387 58.056 21.1093 57.824 21.4933 57.688C23.0533 57.1466 23.368 57.0213 25.0347 56.0773C25.208 55.9786 25.4373 56.016 25.616 56.1226L31.632 59.6933C31.7437 59.7526 31.8682 59.7836 31.9947 59.7836C32.1211 59.7836 32.2457 59.7526 32.3573 59.6933L55.8107 46.1573C55.92 46.0914 56.0104 45.9983 56.073 45.8871C56.1356 45.7758 56.1684 45.6503 56.168 45.5226V18.456C56.1678 18.326 56.1341 18.1984 56.0701 18.0853C56.0061 17.9723 55.914 17.8776 55.8027 17.8106L32.36 4.28529C32.2496 4.22364 32.1252 4.19127 31.9987 4.19127C31.8722 4.19127 31.7478 4.22364 31.6373 4.28529L8.2 17.8133C8.08828 17.8796 7.9955 17.9736 7.93059 18.0861C7.86567 18.1987 7.8308 18.326 7.82934 18.456V45.5226C7.82986 45.6506 7.86447 45.7761 7.92962 45.8863C7.99477 45.9964 8.0881 46.0872 8.2 46.1493L14.624 49.8613C18.1093 51.6053 20.2453 49.552 20.2453 47.488V20.7653C20.2453 20.3866 20.5493 20.0906 20.928 20.0906H23.9013C24.272 20.0906 24.5813 20.3893 24.5813 20.7653V47.488C24.5813 52.1413 22.048 54.808 17.6373 54.808C16.2827 54.808 15.2133 54.808 12.2347 53.3386L6.08 49.8C5.3319 49.3643 4.71114 48.74 4.27972 47.9895C3.84829 47.2389 3.62127 46.3883 3.62134 45.5226V18.456C3.62134 16.6986 4.56267 15.056 6.08 14.1813L29.5333 0.629289C30.2888 0.215924 31.1362 -0.000732422 31.9973 -0.000732422C32.8585 -0.000732422 33.7059 0.215924 34.4613 0.629289L57.912 14.1813C59.432 15.0586 60.376 16.6986 60.376 18.456V45.5226C60.3745 46.3886 60.1462 47.2392 59.7139 47.9896C59.2816 48.74 58.6604 49.3642 57.912 49.8L34.4613 63.3413C33.7147 63.776 32.864 64 31.9947 64ZM50.9307 37.3146C50.9307 32.248 47.5067 30.8986 40.2987 29.9466C33.016 28.984 32.2747 28.4853 32.2747 26.7813C32.2747 25.3733 32.9013 23.4933 38.296 23.4933C43.1147 23.4933 44.8907 24.5306 45.6213 27.7786C45.6546 27.9287 45.738 28.063 45.8577 28.1594C45.9774 28.2558 46.1263 28.3087 46.28 28.3093H49.3227C49.4156 28.3084 49.5074 28.2888 49.5926 28.2517C49.6778 28.2146 49.7547 28.1607 49.8187 28.0933C49.8831 28.0233 49.9322 27.9407 49.963 27.8508C49.9938 27.7608 50.0055 27.6654 49.9973 27.5706C49.5253 21.976 45.808 19.368 38.296 19.368C31.608 19.368 27.6187 22.1893 27.6187 26.9226C27.6187 32.056 31.5867 33.4746 38.0053 34.1093C45.6853 34.8613 46.28 35.984 46.28 37.4933C46.28 40.1146 44.176 41.232 39.2347 41.232C33.0293 41.232 31.664 39.6746 31.2053 36.5866C31.1799 36.4262 31.0978 36.2803 30.9741 36.1751C30.8504 36.07 30.6931 36.0126 30.5307 36.0133H27.4987C27.4098 36.0126 27.3216 36.0295 27.2393 36.0632C27.1569 36.0968 27.0821 36.1464 27.0191 36.2092C26.9561 36.2719 26.9062 36.3465 26.8722 36.4287C26.8383 36.5109 26.821 36.599 26.8213 36.688C26.8213 40.64 28.9707 45.3493 39.2347 45.3493C46.6693 45.352 50.9307 42.4266 50.9307 37.3146Z" fill="#4ECB71"/>
</g>
<defs>
<clipPath id="clip0_26_314">
<rect width="64" height="64" fill="white"/>
</clipPath>
</defs>
</svg>
