<svg xmlns="http://www.w3.org/2000/svg" version="1.1" xmlns:xlink="http://www.w3.org/1999/xlink" xmlns:svgjs="http://svgjs.com/svgjs" width="1440" height="560" preserveAspectRatio="none" viewBox="0 0 1440 560"><g mask="url(&quot;#SvgjsMask1038&quot;)" fill="none"><rect width="1440" height="560" x="0" y="0" fill="url(#SvgjsLinearGradient1039)"></rect><path d="M-82.93 363.33L-82.93 363.33" stroke="rgba(28, 49, 94, 1)" stroke-width="1.5"></path><path d="M-82.93 363.33L72.07 355.17" stroke="rgba(28, 49, 94, 1)" stroke-width="1.5"></path><path d="M-82.93 363.33L-78.92 560.18" stroke="rgba(28, 49, 94, 1)" stroke-width="1.5"></path><path d="M-82.93 363.33L84.78 501.83" stroke="rgba(28, 49, 94, 1)" stroke-width="1.5"></path><path d="M-82.93 363.33L-96.47 676.98" stroke="rgba(28, 49, 94, 1)" stroke-width="1.5"></path><path d="M-78.92 560.18L-78.92 560.18" stroke="rgba(28, 49, 94, 1)" stroke-width="1.5"></path><path d="M-78.92 560.18L-96.47 676.98" stroke="rgba(28, 49, 94, 1)" stroke-width="1.5"></path><path d="M-78.92 560.18L84.78 501.83" stroke="rgba(28, 49, 94, 1)" stroke-width="1.5"></path><path d="M-78.92 560.18L104.24 645.62" stroke="rgba(28, 49, 94, 1)" stroke-width="1.5"></path><path d="M-96.47 676.98L-96.47 676.98" stroke="rgba(28, 49, 94, 1)" stroke-width="1.5"></path><path d="M-96.47 676.98L104.24 645.62" stroke="rgba(28, 49, 94, 1)" stroke-width="1.5"></path><path d="M-96.47 676.98L84.78 501.83" stroke="rgba(28, 49, 94, 1)" stroke-width="1.5"></path><path d="M72.07 355.17L72.07 355.17" stroke="rgba(28, 49, 94, 1)" stroke-width="1.5"></path><path d="M72.07 355.17L84.78 501.83" stroke="rgba(28, 49, 94, 1)" stroke-width="1.5"></path><path d="M72.07 355.17L203.6 499.19" stroke="rgba(28, 49, 94, 1)" stroke-width="1.5"></path><path d="M72.07 355.17L-78.92 560.18" stroke="rgba(28, 49, 94, 1)" stroke-width="1.5"></path><path d="M72.07 355.17L104.24 645.62" stroke="rgba(28, 49, 94, 1)" stroke-width="1.5"></path><path d="M72.07 355.17L411.14 368.05" stroke="rgba(28, 49, 94, 1)" stroke-width="1.5"></path><path d="M84.78 501.83L84.78 501.83" stroke="rgba(28, 49, 94, 1)" stroke-width="1.5"></path><path d="M84.78 501.83L203.6 499.19" stroke="rgba(28, 49, 94, 1)" stroke-width="1.5"></path><path d="M84.78 501.83L104.24 645.62" stroke="rgba(28, 49, 94, 1)" stroke-width="1.5"></path><path d="M104.24 645.62L104.24 645.62" stroke="rgba(28, 49, 94, 1)" stroke-width="1.5"></path><path d="M104.24 645.62L250.11 710.12" stroke="rgba(28, 49, 94, 1)" stroke-width="1.5"></path><path d="M203.6 499.19L203.6 499.19" stroke="rgba(28, 49, 94, 1)" stroke-width="1.5"></path><path d="M203.6 499.19L104.24 645.62" stroke="rgba(28, 49, 94, 1)" stroke-width="1.5"></path><path d="M250.11 710.12L250.11 710.12" stroke="rgba(28, 49, 94, 1)" stroke-width="1.5"></path><path d="M250.11 710.12L396.69 642.49" stroke="rgba(28, 49, 94, 1)" stroke-width="1.5"></path><path d="M250.11 710.12L203.6 499.19" stroke="rgba(28, 49, 94, 1)" stroke-width="1.5"></path><path d="M250.11 710.12L386.61 498.86" stroke="rgba(28, 49, 94, 1)" stroke-width="1.5"></path><path d="M250.11 710.12L84.78 501.83" stroke="rgba(28, 49, 94, 1)" stroke-width="1.5"></path><path d="M250.11 710.12L558.1 638.73" stroke="rgba(28, 49, 94, 1)" stroke-width="1.5"></path><path d="M411.14 368.05L411.14 368.05" stroke="rgba(28, 49, 94, 1)" stroke-width="1.5"></path><path d="M411.14 368.05L386.61 498.86" stroke="rgba(28, 49, 94, 1)" stroke-width="1.5"></path><path d="M411.14 368.05L555.32 410.03" stroke="rgba(28, 49, 94, 1)" stroke-width="1.5"></path><path d="M411.14 368.05L529.67 489.29" stroke="rgba(28, 49, 94, 1)" stroke-width="1.5"></path><path d="M411.14 368.05L203.6 499.19" stroke="rgba(28, 49, 94, 1)" stroke-width="1.5"></path><path d="M411.14 368.05L668.83 374.73" stroke="rgba(28, 49, 94, 1)" stroke-width="1.5"></path><path d="M411.14 368.05L396.69 642.49" stroke="rgba(28, 49, 94, 1)" stroke-width="1.5"></path><path d="M386.61 498.86L386.61 498.86" stroke="rgba(28, 49, 94, 1)" stroke-width="1.5"></path><path d="M386.61 498.86L529.67 489.29" stroke="rgba(28, 49, 94, 1)" stroke-width="1.5"></path><path d="M386.61 498.86L396.69 642.49" stroke="rgba(28, 49, 94, 1)" stroke-width="1.5"></path><path d="M386.61 498.86L203.6 499.19" stroke="rgba(28, 49, 94, 1)" stroke-width="1.5"></path><path d="M396.69 642.49L396.69 642.49" stroke="rgba(28, 49, 94, 1)" stroke-width="1.5"></path><path d="M555.32 410.03L555.32 410.03" stroke="rgba(28, 49, 94, 1)" stroke-width="1.5"></path><path d="M555.32 410.03L529.67 489.29" stroke="rgba(28, 49, 94, 1)" stroke-width="1.5"></path><path d="M555.32 410.03L668.83 374.73" stroke="rgba(28, 49, 94, 1)" stroke-width="1.5"></path><path d="M555.32 410.03L675.34 547.71" stroke="rgba(28, 49, 94, 1)" stroke-width="1.5"></path><path d="M555.32 410.03L386.61 498.86" stroke="rgba(28, 49, 94, 1)" stroke-width="1.5"></path><path d="M555.32 410.03L558.1 638.73" stroke="rgba(28, 49, 94, 1)" stroke-width="1.5"></path><path d="M529.67 489.29L529.67 489.29" stroke="rgba(28, 49, 94, 1)" stroke-width="1.5"></path><path d="M558.1 638.73L558.1 638.73" stroke="rgba(28, 49, 94, 1)" stroke-width="1.5"></path><path d="M558.1 638.73L658.07 640.8" stroke="rgba(28, 49, 94, 1)" stroke-width="1.5"></path><path d="M558.1 638.73L675.34 547.71" stroke="rgba(28, 49, 94, 1)" stroke-width="1.5"></path><path d="M558.1 638.73L529.67 489.29" stroke="rgba(28, 49, 94, 1)" stroke-width="1.5"></path><path d="M558.1 638.73L396.69 642.49" stroke="rgba(28, 49, 94, 1)" stroke-width="1.5"></path><path d="M668.83 374.73L668.83 374.73" stroke="rgba(28, 49, 94, 1)" stroke-width="1.5"></path><path d="M668.83 374.73L789.53 489.21" stroke="rgba(28, 49, 94, 1)" stroke-width="1.5"></path><path d="M668.83 374.73L675.34 547.71" stroke="rgba(28, 49, 94, 1)" stroke-width="1.5"></path><path d="M668.83 374.73L529.67 489.29" stroke="rgba(28, 49, 94, 1)" stroke-width="1.5"></path><path d="M668.83 374.73L852.18 409.44" stroke="rgba(28, 49, 94, 1)" stroke-width="1.5"></path><path d="M668.83 374.73L826.18 222.07" stroke="rgba(28, 49, 94, 1)" stroke-width="1.5"></path><path d="M675.34 547.71L675.34 547.71" stroke="rgba(28, 49, 94, 1)" stroke-width="1.5"></path><path d="M675.34 547.71L658.07 640.8" stroke="rgba(28, 49, 94, 1)" stroke-width="1.5"></path><path d="M675.34 547.71L789.53 489.21" stroke="rgba(28, 49, 94, 1)" stroke-width="1.5"></path><path d="M675.34 547.71L529.67 489.29" stroke="rgba(28, 49, 94, 1)" stroke-width="1.5"></path><path d="M658.07 640.8L658.07 640.8" stroke="rgba(28, 49, 94, 1)" stroke-width="1.5"></path><path d="M658.07 640.8L834.83 695.23" stroke="rgba(28, 49, 94, 1)" stroke-width="1.5"></path><path d="M826.18 222.07L826.18 222.07" stroke="rgba(28, 49, 94, 1)" stroke-width="1.5"></path><path d="M826.18 222.07L948.21 218.97" stroke="rgba(28, 49, 94, 1)" stroke-width="1.5"></path><path d="M826.18 222.07L956.45 342.97" stroke="rgba(28, 49, 94, 1)" stroke-width="1.5"></path><path d="M826.18 222.07L852.18 409.44" stroke="rgba(28, 49, 94, 1)" stroke-width="1.5"></path><path d="M826.18 222.07L967.89 44.5" stroke="rgba(28, 49, 94, 1)" stroke-width="1.5"></path><path d="M826.18 222.07L789.53 489.21" stroke="rgba(28, 49, 94, 1)" stroke-width="1.5"></path><path d="M852.18 409.44L852.18 409.44" stroke="rgba(28, 49, 94, 1)" stroke-width="1.5"></path><path d="M852.18 409.44L789.53 489.21" stroke="rgba(28, 49, 94, 1)" stroke-width="1.5"></path><path d="M852.18 409.44L956.45 342.97" stroke="rgba(28, 49, 94, 1)" stroke-width="1.5"></path><path d="M852.18 409.44L982.47 514.15" stroke="rgba(28, 49, 94, 1)" stroke-width="1.5"></path><path d="M789.53 489.21L789.53 489.21" stroke="rgba(28, 49, 94, 1)" stroke-width="1.5"></path><path d="M789.53 489.21L982.47 514.15" stroke="rgba(28, 49, 94, 1)" stroke-width="1.5"></path><path d="M834.83 695.23L834.83 695.23" stroke="rgba(28, 49, 94, 1)" stroke-width="1.5"></path><path d="M834.83 695.23L1002.9 701.66" stroke="rgba(28, 49, 94, 1)" stroke-width="1.5"></path><path d="M834.83 695.23L789.53 489.21" stroke="rgba(28, 49, 94, 1)" stroke-width="1.5"></path><path d="M834.83 695.23L675.34 547.71" stroke="rgba(28, 49, 94, 1)" stroke-width="1.5"></path><path d="M834.83 695.23L982.47 514.15" stroke="rgba(28, 49, 94, 1)" stroke-width="1.5"></path><path d="M834.83 695.23L1089.49 708.11" stroke="rgba(28, 49, 94, 1)" stroke-width="1.5"></path><path d="M979.83 -68.55L979.83 -68.55" stroke="rgba(28, 49, 94, 1)" stroke-width="1.5"></path><path d="M979.83 -68.55L967.89 44.5" stroke="rgba(28, 49, 94, 1)" stroke-width="1.5"></path><path d="M979.83 -68.55L1134.73 -103.44" stroke="rgba(28, 49, 94, 1)" stroke-width="1.5"></path><path d="M979.83 -68.55L1132.09 54.62" stroke="rgba(28, 49, 94, 1)" stroke-width="1.5"></path><path d="M979.83 -68.55L1243.5 -37.74" stroke="rgba(28, 49, 94, 1)" stroke-width="1.5"></path><path d="M979.83 -68.55L948.21 218.97" stroke="rgba(28, 49, 94, 1)" stroke-width="1.5"></path><path d="M967.89 44.5L967.89 44.5" stroke="rgba(28, 49, 94, 1)" stroke-width="1.5"></path><path d="M967.89 44.5L1132.09 54.62" stroke="rgba(28, 49, 94, 1)" stroke-width="1.5"></path><path d="M948.21 218.97L948.21 218.97" stroke="rgba(28, 49, 94, 1)" stroke-width="1.5"></path><path d="M948.21 218.97L956.45 342.97" stroke="rgba(28, 49, 94, 1)" stroke-width="1.5"></path><path d="M948.21 218.97L1115.32 253.53" stroke="rgba(28, 49, 94, 1)" stroke-width="1.5"></path><path d="M948.21 218.97L967.89 44.5" stroke="rgba(28, 49, 94, 1)" stroke-width="1.5"></path><path d="M956.45 342.97L956.45 342.97" stroke="rgba(28, 49, 94, 1)" stroke-width="1.5"></path><path d="M956.45 342.97L1100.12 345.35" stroke="rgba(28, 49, 94, 1)" stroke-width="1.5"></path><path d="M982.47 514.15L982.47 514.15" stroke="rgba(28, 49, 94, 1)" stroke-width="1.5"></path><path d="M982.47 514.15L956.45 342.97" stroke="rgba(28, 49, 94, 1)" stroke-width="1.5"></path><path d="M982.47 514.15L1161.17 548.29" stroke="rgba(28, 49, 94, 1)" stroke-width="1.5"></path><path d="M1002.9 701.66L1002.9 701.66" stroke="rgba(28, 49, 94, 1)" stroke-width="1.5"></path><path d="M1002.9 701.66L1089.49 708.11" stroke="rgba(28, 49, 94, 1)" stroke-width="1.5"></path><path d="M1002.9 701.66L982.47 514.15" stroke="rgba(28, 49, 94, 1)" stroke-width="1.5"></path><path d="M1002.9 701.66L1161.17 548.29" stroke="rgba(28, 49, 94, 1)" stroke-width="1.5"></path><path d="M1002.9 701.66L789.53 489.21" stroke="rgba(28, 49, 94, 1)" stroke-width="1.5"></path><path d="M1002.9 701.66L852.18 409.44" stroke="rgba(28, 49, 94, 1)" stroke-width="1.5"></path><path d="M1134.73 -103.44L1134.73 -103.44" stroke="rgba(28, 49, 94, 1)" stroke-width="1.5"></path><path d="M1134.73 -103.44L1243.5 -37.74" stroke="rgba(28, 49, 94, 1)" stroke-width="1.5"></path><path d="M1134.73 -103.44L1132.09 54.62" stroke="rgba(28, 49, 94, 1)" stroke-width="1.5"></path><path d="M1134.73 -103.44L967.89 44.5" stroke="rgba(28, 49, 94, 1)" stroke-width="1.5"></path><path d="M1134.73 -103.44L1306.97 69.53" stroke="rgba(28, 49, 94, 1)" stroke-width="1.5"></path><path d="M1134.73 -103.44L1428.35 -96.74" stroke="rgba(28, 49, 94, 1)" stroke-width="1.5"></path><path d="M1132.09 54.62L1132.09 54.62" stroke="rgba(28, 49, 94, 1)" stroke-width="1.5"></path><path d="M1132.09 54.62L1243.5 -37.74" stroke="rgba(28, 49, 94, 1)" stroke-width="1.5"></path><path d="M1132.09 54.62L1306.97 69.53" stroke="rgba(28, 49, 94, 1)" stroke-width="1.5"></path><path d="M1115.32 253.53L1115.32 253.53" stroke="rgba(28, 49, 94, 1)" stroke-width="1.5"></path><path d="M1115.32 253.53L1100.12 345.35" stroke="rgba(28, 49, 94, 1)" stroke-width="1.5"></path><path d="M1115.32 253.53L1253.22 199.14" stroke="rgba(28, 49, 94, 1)" stroke-width="1.5"></path><path d="M1115.32 253.53L956.45 342.97" stroke="rgba(28, 49, 94, 1)" stroke-width="1.5"></path><path d="M1100.12 345.35L1100.12 345.35" stroke="rgba(28, 49, 94, 1)" stroke-width="1.5"></path><path d="M1100.12 345.35L1293.99 373.51" stroke="rgba(28, 49, 94, 1)" stroke-width="1.5"></path><path d="M1100.12 345.35L948.21 218.97" stroke="rgba(28, 49, 94, 1)" stroke-width="1.5"></path><path d="M1100.12 345.35L982.47 514.15" stroke="rgba(28, 49, 94, 1)" stroke-width="1.5"></path><path d="M1100.12 345.35L1253.22 199.14" stroke="rgba(28, 49, 94, 1)" stroke-width="1.5"></path><path d="M1161.17 548.29L1161.17 548.29" stroke="rgba(28, 49, 94, 1)" stroke-width="1.5"></path><path d="M1161.17 548.29L1267.48 498.07" stroke="rgba(28, 49, 94, 1)" stroke-width="1.5"></path><path d="M1161.17 548.29L1089.49 708.11" stroke="rgba(28, 49, 94, 1)" stroke-width="1.5"></path><path d="M1089.49 708.11L1089.49 708.11" stroke="rgba(28, 49, 94, 1)" stroke-width="1.5"></path><path d="M1089.49 708.11L982.47 514.15" stroke="rgba(28, 49, 94, 1)" stroke-width="1.5"></path><path d="M1089.49 708.11L1267.48 498.07" stroke="rgba(28, 49, 94, 1)" stroke-width="1.5"></path><path d="M1089.49 708.11L1451.91 699.46" stroke="rgba(28, 49, 94, 1)" stroke-width="1.5"></path><path d="M1243.5 -37.74L1243.5 -37.74" stroke="rgba(28, 49, 94, 1)" stroke-width="1.5"></path><path d="M1243.5 -37.74L1306.97 69.53" stroke="rgba(28, 49, 94, 1)" stroke-width="1.5"></path><path d="M1243.5 -37.74L1428.35 -96.74" stroke="rgba(28, 49, 94, 1)" stroke-width="1.5"></path><path d="M1243.5 -37.74L1433.34 95.42" stroke="rgba(28, 49, 94, 1)" stroke-width="1.5"></path><path d="M1306.97 69.53L1306.97 69.53" stroke="rgba(28, 49, 94, 1)" stroke-width="1.5"></path><path d="M1306.97 69.53L1433.34 95.42" stroke="rgba(28, 49, 94, 1)" stroke-width="1.5"></path><path d="M1253.22 199.14L1253.22 199.14" stroke="rgba(28, 49, 94, 1)" stroke-width="1.5"></path><path d="M1253.22 199.14L1306.97 69.53" stroke="rgba(28, 49, 94, 1)" stroke-width="1.5"></path><path d="M1253.22 199.14L1293.99 373.51" stroke="rgba(28, 49, 94, 1)" stroke-width="1.5"></path><path d="M1253.22 199.14L1132.09 54.62" stroke="rgba(28, 49, 94, 1)" stroke-width="1.5"></path><path d="M1253.22 199.14L1433.34 95.42" stroke="rgba(28, 49, 94, 1)" stroke-width="1.5"></path><path d="M1253.22 199.14L1460.96 206.3" stroke="rgba(28, 49, 94, 1)" stroke-width="1.5"></path><path d="M1293.99 373.51L1293.99 373.51" stroke="rgba(28, 49, 94, 1)" stroke-width="1.5"></path><path d="M1293.99 373.51L1267.48 498.07" stroke="rgba(28, 49, 94, 1)" stroke-width="1.5"></path><path d="M1293.99 373.51L1430.55 353.68" stroke="rgba(28, 49, 94, 1)" stroke-width="1.5"></path><path d="M1293.99 373.51L1391.48 491.58" stroke="rgba(28, 49, 94, 1)" stroke-width="1.5"></path><path d="M1293.99 373.51L1115.32 253.53" stroke="rgba(28, 49, 94, 1)" stroke-width="1.5"></path><path d="M1267.48 498.07L1267.48 498.07" stroke="rgba(28, 49, 94, 1)" stroke-width="1.5"></path><path d="M1267.48 498.07L1391.48 491.58" stroke="rgba(28, 49, 94, 1)" stroke-width="1.5"></path><path d="M1428.35 -96.74L1428.35 -96.74" stroke="rgba(28, 49, 94, 1)" stroke-width="1.5"></path><path d="M1428.35 -96.74L1556.68 -72.35" stroke="rgba(28, 49, 94, 1)" stroke-width="1.5"></path><path d="M1428.35 -96.74L1554.28 40" stroke="rgba(28, 49, 94, 1)" stroke-width="1.5"></path><path d="M1428.35 -96.74L1433.34 95.42" stroke="rgba(28, 49, 94, 1)" stroke-width="1.5"></path><path d="M1428.35 -96.74L1306.97 69.53" stroke="rgba(28, 49, 94, 1)" stroke-width="1.5"></path><path d="M1433.34 95.42L1433.34 95.42" stroke="rgba(28, 49, 94, 1)" stroke-width="1.5"></path><path d="M1433.34 95.42L1460.96 206.3" stroke="rgba(28, 49, 94, 1)" stroke-width="1.5"></path><path d="M1433.34 95.42L1554.28 40" stroke="rgba(28, 49, 94, 1)" stroke-width="1.5"></path><path d="M1433.34 95.42L1558.62 232.16" stroke="rgba(28, 49, 94, 1)" stroke-width="1.5"></path><path d="M1460.96 206.3L1460.96 206.3" stroke="rgba(28, 49, 94, 1)" stroke-width="1.5"></path><path d="M1460.96 206.3L1558.62 232.16" stroke="rgba(28, 49, 94, 1)" stroke-width="1.5"></path><path d="M1460.96 206.3L1430.55 353.68" stroke="rgba(28, 49, 94, 1)" stroke-width="1.5"></path><path d="M1460.96 206.3L1547.54 352.65" stroke="rgba(28, 49, 94, 1)" stroke-width="1.5"></path><path d="M1430.55 353.68L1430.55 353.68" stroke="rgba(28, 49, 94, 1)" stroke-width="1.5"></path><path d="M1430.55 353.68L1547.54 352.65" stroke="rgba(28, 49, 94, 1)" stroke-width="1.5"></path><path d="M1391.48 491.58L1391.48 491.58" stroke="rgba(28, 49, 94, 1)" stroke-width="1.5"></path><path d="M1391.48 491.58L1430.55 353.68" stroke="rgba(28, 49, 94, 1)" stroke-width="1.5"></path><path d="M1451.91 699.46L1451.91 699.46" stroke="rgba(28, 49, 94, 1)" stroke-width="1.5"></path><path d="M1451.91 699.46L1598.29 691.31" stroke="rgba(28, 49, 94, 1)" stroke-width="1.5"></path><path d="M1451.91 699.46L1391.48 491.58" stroke="rgba(28, 49, 94, 1)" stroke-width="1.5"></path><path d="M1451.91 699.46L1567.89 490.84" stroke="rgba(28, 49, 94, 1)" stroke-width="1.5"></path><path d="M1556.68 -72.35L1556.68 -72.35" stroke="rgba(28, 49, 94, 1)" stroke-width="1.5"></path><path d="M1556.68 -72.35L1554.28 40" stroke="rgba(28, 49, 94, 1)" stroke-width="1.5"></path><path d="M1556.68 -72.35L1433.34 95.42" stroke="rgba(28, 49, 94, 1)" stroke-width="1.5"></path><path d="M1556.68 -72.35L1306.97 69.53" stroke="rgba(28, 49, 94, 1)" stroke-width="1.5"></path><path d="M1556.68 -72.35L1460.96 206.3" stroke="rgba(28, 49, 94, 1)" stroke-width="1.5"></path><path d="M1554.28 40L1554.28 40" stroke="rgba(28, 49, 94, 1)" stroke-width="1.5"></path><path d="M1554.28 40L1460.96 206.3" stroke="rgba(28, 49, 94, 1)" stroke-width="1.5"></path><path d="M1558.62 232.16L1558.62 232.16" stroke="rgba(28, 49, 94, 1)" stroke-width="1.5"></path><path d="M1558.62 232.16L1547.54 352.65" stroke="rgba(28, 49, 94, 1)" stroke-width="1.5"></path><path d="M1547.54 352.65L1547.54 352.65" stroke="rgba(28, 49, 94, 1)" stroke-width="1.5"></path><path d="M1567.89 490.84L1567.89 490.84" stroke="rgba(28, 49, 94, 1)" stroke-width="1.5"></path><path d="M1567.89 490.84L1547.54 352.65" stroke="rgba(28, 49, 94, 1)" stroke-width="1.5"></path><path d="M1567.89 490.84L1391.48 491.58" stroke="rgba(28, 49, 94, 1)" stroke-width="1.5"></path><path d="M1567.89 490.84L1430.55 353.68" stroke="rgba(28, 49, 94, 1)" stroke-width="1.5"></path><path d="M1567.89 490.84L1598.29 691.31" stroke="rgba(28, 49, 94, 1)" stroke-width="1.5"></path><path d="M1567.89 490.84L1558.62 232.16" stroke="rgba(28, 49, 94, 1)" stroke-width="1.5"></path><path d="M1598.29 691.31L1598.29 691.31" stroke="rgba(28, 49, 94, 1)" stroke-width="1.5"></path><circle r="5" cx="-82.93" cy="363.33" fill="rgba(28, 49, 94, 1)"></circle><circle r="5" cx="-78.92" cy="560.18" fill="rgba(28, 49, 94, 1)"></circle><circle r="5" cx="-96.47" cy="676.98" fill="rgba(28, 49, 94, 1)"></circle><circle r="5" cx="72.07" cy="355.17" fill="rgba(28, 49, 94, 1)"></circle><circle r="5" cx="84.78" cy="501.83" fill="rgba(28, 49, 94, 1)"></circle><circle r="5" cx="104.24" cy="645.62" fill="rgba(28, 49, 94, 1)"></circle><circle r="5" cx="203.6" cy="499.19" fill="rgba(28, 49, 94, 1)"></circle><circle r="5" cx="250.11" cy="710.12" fill="rgba(28, 49, 94, 1)"></circle><circle r="5" cx="411.14" cy="368.05" fill="rgba(28, 49, 94, 1)"></circle><circle r="5" cx="386.61" cy="498.86" fill="rgba(28, 49, 94, 1)"></circle><circle r="5" cx="396.69" cy="642.49" fill="rgba(28, 49, 94, 1)"></circle><circle r="5" cx="555.32" cy="410.03" fill="rgba(28, 49, 94, 1)"></circle><circle r="5" cx="529.67" cy="489.29" fill="rgba(28, 49, 94, 1)"></circle><circle r="5" cx="558.1" cy="638.73" fill="rgba(28, 49, 94, 1)"></circle><circle r="5" cx="668.83" cy="374.73" fill="rgba(28, 49, 94, 1)"></circle><circle r="5" cx="675.34" cy="547.71" fill="rgba(28, 49, 94, 1)"></circle><circle r="5" cx="658.07" cy="640.8" fill="rgba(28, 49, 94, 1)"></circle><circle r="5" cx="826.18" cy="222.07" fill="rgba(28, 49, 94, 1)"></circle><circle r="5" cx="852.18" cy="409.44" fill="rgba(28, 49, 94, 1)"></circle><circle r="5" cx="789.53" cy="489.21" fill="rgba(28, 49, 94, 1)"></circle><circle r="5" cx="834.83" cy="695.23" fill="rgba(28, 49, 94, 1)"></circle><circle r="5" cx="979.83" cy="-68.55" fill="rgba(28, 49, 94, 1)"></circle><circle r="5" cx="967.89" cy="44.5" fill="rgba(28, 49, 94, 1)"></circle><circle r="5" cx="948.21" cy="218.97" fill="rgba(28, 49, 94, 1)"></circle><circle r="5" cx="956.45" cy="342.97" fill="rgba(28, 49, 94, 1)"></circle><circle r="5" cx="982.47" cy="514.15" fill="rgba(28, 49, 94, 1)"></circle><circle r="5" cx="1002.9" cy="701.66" fill="rgba(28, 49, 94, 1)"></circle><circle r="5" cx="1134.73" cy="-103.44" fill="rgba(28, 49, 94, 1)"></circle><circle r="5" cx="1132.09" cy="54.62" fill="rgba(28, 49, 94, 1)"></circle><circle r="5" cx="1115.32" cy="253.53" fill="rgba(28, 49, 94, 1)"></circle><circle r="5" cx="1100.12" cy="345.35" fill="rgba(28, 49, 94, 1)"></circle><circle r="5" cx="1161.17" cy="548.29" fill="rgba(28, 49, 94, 1)"></circle><circle r="5" cx="1089.49" cy="708.11" fill="rgba(28, 49, 94, 1)"></circle><circle r="5" cx="1243.5" cy="-37.74" fill="rgba(28, 49, 94, 1)"></circle><circle r="5" cx="1306.97" cy="69.53" fill="rgba(28, 49, 94, 1)"></circle><circle r="5" cx="1253.22" cy="199.14" fill="rgba(28, 49, 94, 1)"></circle><circle r="5" cx="1293.99" cy="373.51" fill="rgba(28, 49, 94, 1)"></circle><circle r="5" cx="1267.48" cy="498.07" fill="rgba(28, 49, 94, 1)"></circle><circle r="5" cx="1428.35" cy="-96.74" fill="rgba(28, 49, 94, 1)"></circle><circle r="5" cx="1433.34" cy="95.42" fill="rgba(28, 49, 94, 1)"></circle><circle r="5" cx="1460.96" cy="206.3" fill="rgba(28, 49, 94, 1)"></circle><circle r="5" cx="1430.55" cy="353.68" fill="rgba(28, 49, 94, 1)"></circle><circle r="5" cx="1391.48" cy="491.58" fill="rgba(28, 49, 94, 1)"></circle><circle r="5" cx="1451.91" cy="699.46" fill="rgba(28, 49, 94, 1)"></circle><circle r="5" cx="1556.68" cy="-72.35" fill="rgba(28, 49, 94, 1)"></circle><circle r="5" cx="1554.28" cy="40" fill="rgba(28, 49, 94, 1)"></circle><circle r="5" cx="1558.62" cy="232.16" fill="rgba(28, 49, 94, 1)"></circle><circle r="5" cx="1547.54" cy="352.65" fill="rgba(28, 49, 94, 1)"></circle><circle r="5" cx="1567.89" cy="490.84" fill="rgba(28, 49, 94, 1)"></circle><circle r="5" cx="1598.29" cy="691.31" fill="rgba(28, 49, 94, 1)"></circle><path d="M-107.18 494.1L-107.18 494.1" stroke="hsl(228.60000000000002, 53.3%, 50.2%)" stroke-width="1.5"></path><path d="M-107.18 494.1L97.19 490.66" stroke="hsl(228.60000000000002, 53.3%, 50.2%)" stroke-width="1.5"></path><path d="M-107.18 494.1L-99.6 711.22" stroke="hsl(228.60000000000002, 53.3%, 50.2%)" stroke-width="1.5"></path><path d="M-107.18 494.1L52.99 706.14" stroke="hsl(228.60000000000002, 53.3%, 50.2%)" stroke-width="1.5"></path><path d="M97.19 490.66L97.19 490.66" stroke="hsl(228.60000000000002, 53.3%, 50.2%)" stroke-width="1.5"></path><path d="M97.19 490.66L199.86 551.24" stroke="hsl(228.60000000000002, 53.3%, 50.2%)" stroke-width="1.5"></path><path d="M97.19 490.66L52.99 706.14" stroke="hsl(228.60000000000002, 53.3%, 50.2%)" stroke-width="1.5"></path><path d="M97.19 490.66L-99.6 711.22" stroke="hsl(228.60000000000002, 53.3%, 50.2%)" stroke-width="1.5"></path><path d="M97.19 490.66L411.42 504.87" stroke="hsl(228.60000000000002, 53.3%, 50.2%)" stroke-width="1.5"></path><path d="M97.19 490.66L377.31 696.35" stroke="hsl(228.60000000000002, 53.3%, 50.2%)" stroke-width="1.5"></path><path d="M377.31 696.35L377.31 696.35" stroke="hsl(228.60000000000002, 53.3%, 50.2%)" stroke-width="1.5"></path><path d="M377.31 696.35L498.36 654.55" stroke="hsl(228.60000000000002, 53.3%, 50.2%)" stroke-width="1.5"></path><path d="M377.31 696.35L411.42 504.87" stroke="hsl(228.60000000000002, 53.3%, 50.2%)" stroke-width="1.5"></path><path d="M377.31 696.35L506.87 525.89" stroke="hsl(228.60000000000002, 53.3%, 50.2%)" stroke-width="1.5"></path><path d="M377.31 696.35L199.86 551.24" stroke="hsl(228.60000000000002, 53.3%, 50.2%)" stroke-width="1.5"></path><path d="M639.76 506.39L639.76 506.39" stroke="hsl(228.60000000000002, 53.3%, 50.2%)" stroke-width="1.5"></path><path d="M639.76 506.39L506.87 525.89" stroke="hsl(228.60000000000002, 53.3%, 50.2%)" stroke-width="1.5"></path><path d="M639.76 506.39L808.19 516.34" stroke="hsl(228.60000000000002, 53.3%, 50.2%)" stroke-width="1.5"></path><path d="M978.37 343.12L978.37 343.12" stroke="hsl(228.60000000000002, 53.3%, 50.2%)" stroke-width="1.5"></path><path d="M978.37 343.12L840.71 349.92" stroke="hsl(228.60000000000002, 53.3%, 50.2%)" stroke-width="1.5"></path><path d="M978.37 343.12L943.82 490.95" stroke="hsl(228.60000000000002, 53.3%, 50.2%)" stroke-width="1.5"></path><path d="M1565.6 337.65L1565.6 337.65" stroke="hsl(228.60000000000002, 53.3%, 50.2%)" stroke-width="1.5"></path><path d="M1565.6 337.65L1596.92 199.01" stroke="hsl(228.60000000000002, 53.3%, 50.2%)" stroke-width="1.5"></path><path d="M1565.6 337.65L1388.66 389.18" stroke="hsl(228.60000000000002, 53.3%, 50.2%)" stroke-width="1.5"></path><path d="M1565.6 337.65L1418.52 196.36" stroke="hsl(228.60000000000002, 53.3%, 50.2%)" stroke-width="1.5"></path><path d="M1565.6 337.65L1564.93 553.12" stroke="hsl(228.60000000000002, 53.3%, 50.2%)" stroke-width="1.5"></path><path d="M1564.93 553.12L1564.93 553.12" stroke="hsl(228.60000000000002, 53.3%, 50.2%)" stroke-width="1.5"></path><path d="M1564.93 553.12L1571.13 699.16" stroke="hsl(228.60000000000002, 53.3%, 50.2%)" stroke-width="1.5"></path><path d="M1564.93 553.12L1395.05 548.91" stroke="hsl(228.60000000000002, 53.3%, 50.2%)" stroke-width="1.5"></path><path d="M1564.93 553.12L1393.89 690.46" stroke="hsl(228.60000000000002, 53.3%, 50.2%)" stroke-width="1.5"></path><path d="M1564.93 553.12L1388.66 389.18" stroke="hsl(228.60000000000002, 53.3%, 50.2%)" stroke-width="1.5"></path><path d="M1564.93 553.12L1298.66 509.85" stroke="hsl(228.60000000000002, 53.3%, 50.2%)" stroke-width="1.5"></path><path d="M-99.6 711.22L-99.6 711.22" stroke="hsl(228.60000000000002, 53.3%, 50.2%)" stroke-width="1.5"></path><path d="M-99.6 711.22L52.99 706.14" stroke="hsl(228.60000000000002, 53.3%, 50.2%)" stroke-width="1.5"></path><path d="M52.99 706.14L52.99 706.14" stroke="hsl(228.60000000000002, 53.3%, 50.2%)" stroke-width="1.5"></path><path d="M52.99 706.14L199.86 551.24" stroke="hsl(228.60000000000002, 53.3%, 50.2%)" stroke-width="1.5"></path><path d="M199.86 551.24L199.86 551.24" stroke="hsl(228.60000000000002, 53.3%, 50.2%)" stroke-width="1.5"></path><path d="M199.86 551.24L411.42 504.87" stroke="hsl(228.60000000000002, 53.3%, 50.2%)" stroke-width="1.5"></path><path d="M411.42 504.87L411.42 504.87" stroke="hsl(228.60000000000002, 53.3%, 50.2%)" stroke-width="1.5"></path><path d="M411.42 504.87L506.87 525.89" stroke="hsl(228.60000000000002, 53.3%, 50.2%)" stroke-width="1.5"></path><path d="M411.42 504.87L498.36 654.55" stroke="hsl(228.60000000000002, 53.3%, 50.2%)" stroke-width="1.5"></path><path d="M411.42 504.87L639.76 506.39" stroke="hsl(228.60000000000002, 53.3%, 50.2%)" stroke-width="1.5"></path><path d="M506.87 525.89L506.87 525.89" stroke="hsl(228.60000000000002, 53.3%, 50.2%)" stroke-width="1.5"></path><path d="M506.87 525.89L498.36 654.55" stroke="hsl(228.60000000000002, 53.3%, 50.2%)" stroke-width="1.5"></path><path d="M506.87 525.89L808.19 516.34" stroke="hsl(228.60000000000002, 53.3%, 50.2%)" stroke-width="1.5"></path><path d="M506.87 525.89L199.86 551.24" stroke="hsl(228.60000000000002, 53.3%, 50.2%)" stroke-width="1.5"></path><path d="M498.36 654.55L498.36 654.55" stroke="hsl(228.60000000000002, 53.3%, 50.2%)" stroke-width="1.5"></path><path d="M498.36 654.55L639.76 506.39" stroke="hsl(228.60000000000002, 53.3%, 50.2%)" stroke-width="1.5"></path><path d="M498.36 654.55L199.86 551.24" stroke="hsl(228.60000000000002, 53.3%, 50.2%)" stroke-width="1.5"></path><path d="M840.71 349.92L840.71 349.92" stroke="hsl(228.60000000000002, 53.3%, 50.2%)" stroke-width="1.5"></path><path d="M840.71 349.92L808.19 516.34" stroke="hsl(228.60000000000002, 53.3%, 50.2%)" stroke-width="1.5"></path><path d="M808.19 516.34L808.19 516.34" stroke="hsl(228.60000000000002, 53.3%, 50.2%)" stroke-width="1.5"></path><path d="M808.19 516.34L943.82 490.95" stroke="hsl(228.60000000000002, 53.3%, 50.2%)" stroke-width="1.5"></path><path d="M808.19 516.34L845.99 687.46" stroke="hsl(228.60000000000002, 53.3%, 50.2%)" stroke-width="1.5"></path><path d="M845.99 687.46L845.99 687.46" stroke="hsl(228.60000000000002, 53.3%, 50.2%)" stroke-width="1.5"></path><path d="M845.99 687.46L959.91 645.78" stroke="hsl(228.60000000000002, 53.3%, 50.2%)" stroke-width="1.5"></path><path d="M845.99 687.46L943.82 490.95" stroke="hsl(228.60000000000002, 53.3%, 50.2%)" stroke-width="1.5"></path><path d="M943.82 490.95L943.82 490.95" stroke="hsl(228.60000000000002, 53.3%, 50.2%)" stroke-width="1.5"></path><path d="M943.82 490.95L959.91 645.78" stroke="hsl(228.60000000000002, 53.3%, 50.2%)" stroke-width="1.5"></path><path d="M959.91 645.78L959.91 645.78" stroke="hsl(228.60000000000002, 53.3%, 50.2%)" stroke-width="1.5"></path><path d="M959.91 645.78L1124.37 679.57" stroke="hsl(228.60000000000002, 53.3%, 50.2%)" stroke-width="1.5"></path><path d="M959.91 645.78L808.19 516.34" stroke="hsl(228.60000000000002, 53.3%, 50.2%)" stroke-width="1.5"></path><path d="M959.91 645.78L1133.08 489.38" stroke="hsl(228.60000000000002, 53.3%, 50.2%)" stroke-width="1.5"></path><path d="M1105.4 252.2L1105.4 252.2" stroke="hsl(228.60000000000002, 53.3%, 50.2%)" stroke-width="1.5"></path><path d="M1105.4 252.2L1139.6 343.13" stroke="hsl(228.60000000000002, 53.3%, 50.2%)" stroke-width="1.5"></path><path d="M1105.4 252.2L978.37 343.12" stroke="hsl(228.60000000000002, 53.3%, 50.2%)" stroke-width="1.5"></path><path d="M1105.4 252.2L1308.26 251.87" stroke="hsl(228.60000000000002, 53.3%, 50.2%)" stroke-width="1.5"></path><path d="M1105.4 252.2L1273.95 385.97" stroke="hsl(228.60000000000002, 53.3%, 50.2%)" stroke-width="1.5"></path><path d="M1139.6 343.13L1139.6 343.13" stroke="hsl(228.60000000000002, 53.3%, 50.2%)" stroke-width="1.5"></path><path d="M1139.6 343.13L1273.95 385.97" stroke="hsl(228.60000000000002, 53.3%, 50.2%)" stroke-width="1.5"></path><path d="M1139.6 343.13L1133.08 489.38" stroke="hsl(228.60000000000002, 53.3%, 50.2%)" stroke-width="1.5"></path><path d="M1139.6 343.13L978.37 343.12" stroke="hsl(228.60000000000002, 53.3%, 50.2%)" stroke-width="1.5"></path><path d="M1133.08 489.38L1133.08 489.38" stroke="hsl(228.60000000000002, 53.3%, 50.2%)" stroke-width="1.5"></path><path d="M1133.08 489.38L1298.66 509.85" stroke="hsl(228.60000000000002, 53.3%, 50.2%)" stroke-width="1.5"></path><path d="M1124.37 679.57L1124.37 679.57" stroke="hsl(228.60000000000002, 53.3%, 50.2%)" stroke-width="1.5"></path><path d="M1124.37 679.57L1263.55 651.58" stroke="hsl(228.60000000000002, 53.3%, 50.2%)" stroke-width="1.5"></path><path d="M1124.37 679.57L1133.08 489.38" stroke="hsl(228.60000000000002, 53.3%, 50.2%)" stroke-width="1.5"></path><path d="M1124.37 679.57L1298.66 509.85" stroke="hsl(228.60000000000002, 53.3%, 50.2%)" stroke-width="1.5"></path><path d="M1308.3 -65.26L1308.3 -65.26" stroke="hsl(228.60000000000002, 53.3%, 50.2%)" stroke-width="1.5"></path><path d="M1308.3 -65.26L1407.81 -87.86" stroke="hsl(228.60000000000002, 53.3%, 50.2%)" stroke-width="1.5"></path><path d="M1308.3 -65.26L1409.79 41.23" stroke="hsl(228.60000000000002, 53.3%, 50.2%)" stroke-width="1.5"></path><path d="M1308.3 -65.26L1264.79 87.38" stroke="hsl(228.60000000000002, 53.3%, 50.2%)" stroke-width="1.5"></path><path d="M1264.79 87.38L1264.79 87.38" stroke="hsl(228.60000000000002, 53.3%, 50.2%)" stroke-width="1.5"></path><path d="M1264.79 87.38L1409.79 41.23" stroke="hsl(228.60000000000002, 53.3%, 50.2%)" stroke-width="1.5"></path><path d="M1308.26 251.87L1308.26 251.87" stroke="hsl(228.60000000000002, 53.3%, 50.2%)" stroke-width="1.5"></path><path d="M1308.26 251.87L1418.52 196.36" stroke="hsl(228.60000000000002, 53.3%, 50.2%)" stroke-width="1.5"></path><path d="M1308.26 251.87L1273.95 385.97" stroke="hsl(228.60000000000002, 53.3%, 50.2%)" stroke-width="1.5"></path><path d="M1308.26 251.87L1388.66 389.18" stroke="hsl(228.60000000000002, 53.3%, 50.2%)" stroke-width="1.5"></path><path d="M1308.26 251.87L1264.79 87.38" stroke="hsl(228.60000000000002, 53.3%, 50.2%)" stroke-width="1.5"></path><path d="M1308.26 251.87L1139.6 343.13" stroke="hsl(228.60000000000002, 53.3%, 50.2%)" stroke-width="1.5"></path><path d="M1273.95 385.97L1273.95 385.97" stroke="hsl(228.60000000000002, 53.3%, 50.2%)" stroke-width="1.5"></path><path d="M1273.95 385.97L1388.66 389.18" stroke="hsl(228.60000000000002, 53.3%, 50.2%)" stroke-width="1.5"></path><path d="M1273.95 385.97L1298.66 509.85" stroke="hsl(228.60000000000002, 53.3%, 50.2%)" stroke-width="1.5"></path><path d="M1298.66 509.85L1298.66 509.85" stroke="hsl(228.60000000000002, 53.3%, 50.2%)" stroke-width="1.5"></path><path d="M1298.66 509.85L1395.05 548.91" stroke="hsl(228.60000000000002, 53.3%, 50.2%)" stroke-width="1.5"></path><path d="M1263.55 651.58L1263.55 651.58" stroke="hsl(228.60000000000002, 53.3%, 50.2%)" stroke-width="1.5"></path><path d="M1263.55 651.58L1393.89 690.46" stroke="hsl(228.60000000000002, 53.3%, 50.2%)" stroke-width="1.5"></path><path d="M1407.81 -87.86L1407.81 -87.86" stroke="hsl(228.60000000000002, 53.3%, 50.2%)" stroke-width="1.5"></path><path d="M1407.81 -87.86L1409.79 41.23" stroke="hsl(228.60000000000002, 53.3%, 50.2%)" stroke-width="1.5"></path><path d="M1407.81 -87.86L1544.88 -43" stroke="hsl(228.60000000000002, 53.3%, 50.2%)" stroke-width="1.5"></path><path d="M1407.81 -87.86L1539.56 55.34" stroke="hsl(228.60000000000002, 53.3%, 50.2%)" stroke-width="1.5"></path><path d="M1407.81 -87.86L1264.79 87.38" stroke="hsl(228.60000000000002, 53.3%, 50.2%)" stroke-width="1.5"></path><path d="M1409.79 41.23L1409.79 41.23" stroke="hsl(228.60000000000002, 53.3%, 50.2%)" stroke-width="1.5"></path><path d="M1409.79 41.23L1539.56 55.34" stroke="hsl(228.60000000000002, 53.3%, 50.2%)" stroke-width="1.5"></path><path d="M1409.79 41.23L1418.52 196.36" stroke="hsl(228.60000000000002, 53.3%, 50.2%)" stroke-width="1.5"></path><path d="M1409.79 41.23L1544.88 -43" stroke="hsl(228.60000000000002, 53.3%, 50.2%)" stroke-width="1.5"></path><path d="M1418.52 196.36L1418.52 196.36" stroke="hsl(228.60000000000002, 53.3%, 50.2%)" stroke-width="1.5"></path><path d="M1418.52 196.36L1596.92 199.01" stroke="hsl(228.60000000000002, 53.3%, 50.2%)" stroke-width="1.5"></path><path d="M1388.66 389.18L1388.66 389.18" stroke="hsl(228.60000000000002, 53.3%, 50.2%)" stroke-width="1.5"></path><path d="M1388.66 389.18L1298.66 509.85" stroke="hsl(228.60000000000002, 53.3%, 50.2%)" stroke-width="1.5"></path><path d="M1388.66 389.18L1395.05 548.91" stroke="hsl(228.60000000000002, 53.3%, 50.2%)" stroke-width="1.5"></path><path d="M1395.05 548.91L1395.05 548.91" stroke="hsl(228.60000000000002, 53.3%, 50.2%)" stroke-width="1.5"></path><path d="M1395.05 548.91L1393.89 690.46" stroke="hsl(228.60000000000002, 53.3%, 50.2%)" stroke-width="1.5"></path><path d="M1395.05 548.91L1263.55 651.58" stroke="hsl(228.60000000000002, 53.3%, 50.2%)" stroke-width="1.5"></path><path d="M1393.89 690.46L1393.89 690.46" stroke="hsl(228.60000000000002, 53.3%, 50.2%)" stroke-width="1.5"></path><path d="M1544.88 -43L1544.88 -43" stroke="hsl(228.60000000000002, 53.3%, 50.2%)" stroke-width="1.5"></path><path d="M1544.88 -43L1539.56 55.34" stroke="hsl(228.60000000000002, 53.3%, 50.2%)" stroke-width="1.5"></path><path d="M1539.56 55.34L1539.56 55.34" stroke="hsl(228.60000000000002, 53.3%, 50.2%)" stroke-width="1.5"></path><path d="M1596.92 199.01L1596.92 199.01" stroke="hsl(228.60000000000002, 53.3%, 50.2%)" stroke-width="1.5"></path><path d="M1596.92 199.01L1539.56 55.34" stroke="hsl(228.60000000000002, 53.3%, 50.2%)" stroke-width="1.5"></path><path d="M1596.92 199.01L1409.79 41.23" stroke="hsl(228.60000000000002, 53.3%, 50.2%)" stroke-width="1.5"></path><path d="M1596.92 199.01L1544.88 -43" stroke="hsl(228.60000000000002, 53.3%, 50.2%)" stroke-width="1.5"></path><path d="M1571.13 699.16L1571.13 699.16" stroke="hsl(228.60000000000002, 53.3%, 50.2%)" stroke-width="1.5"></path><path d="M1571.13 699.16L1393.89 690.46" stroke="hsl(228.60000000000002, 53.3%, 50.2%)" stroke-width="1.5"></path><path d="M1571.13 699.16L1395.05 548.91" stroke="hsl(228.60000000000002, 53.3%, 50.2%)" stroke-width="1.5"></path><path d="M1571.13 699.16L1263.55 651.58" stroke="hsl(228.60000000000002, 53.3%, 50.2%)" stroke-width="1.5"></path><path d="M1571.13 699.16L1298.66 509.85" stroke="hsl(228.60000000000002, 53.3%, 50.2%)" stroke-width="1.5"></path><path d="M1571.13 699.16L1388.66 389.18" stroke="hsl(228.60000000000002, 53.3%, 50.2%)" stroke-width="1.5"></path><circle r="25" cx="-107.18" cy="494.1" fill="url(#SvgjsRadialGradient1040)"></circle><circle r="25" cx="97.19" cy="490.66" fill="url(#SvgjsRadialGradient1040)"></circle><circle r="25" cx="377.31" cy="696.35" fill="url(#SvgjsRadialGradient1040)"></circle><circle r="25" cx="639.76" cy="506.39" fill="url(#SvgjsRadialGradient1040)"></circle><circle r="25" cx="978.37" cy="343.12" fill="url(#SvgjsRadialGradient1040)"></circle><circle r="25" cx="1565.6" cy="337.65" fill="url(#SvgjsRadialGradient1040)"></circle><circle r="25" cx="1564.93" cy="553.12" fill="url(#SvgjsRadialGradient1040)"></circle><circle r="5" cx="-99.6" cy="711.22" fill="#97a1cb"></circle><circle r="5" cx="52.99" cy="706.14" fill="#97a1cb"></circle><circle r="5" cx="199.86" cy="551.24" fill="#97a1cb"></circle><circle r="5" cx="411.42" cy="504.87" fill="#97a1cb"></circle><circle r="5" cx="506.87" cy="525.89" fill="#97a1cb"></circle><circle r="5" cx="498.36" cy="654.55" fill="#97a1cb"></circle><circle r="5" cx="840.71" cy="349.92" fill="#97a1cb"></circle><circle r="5" cx="808.19" cy="516.34" fill="#97a1cb"></circle><circle r="5" cx="845.99" cy="687.46" fill="#97a1cb"></circle><circle r="5" cx="943.82" cy="490.95" fill="#97a1cb"></circle><circle r="5" cx="959.91" cy="645.78" fill="#97a1cb"></circle><circle r="5" cx="1105.4" cy="252.2" fill="#97a1cb"></circle><circle r="5" cx="1139.6" cy="343.13" fill="#97a1cb"></circle><circle r="5" cx="1133.08" cy="489.38" fill="#97a1cb"></circle><circle r="5" cx="1124.37" cy="679.57" fill="#97a1cb"></circle><circle r="5" cx="1308.3" cy="-65.26" fill="#97a1cb"></circle><circle r="5" cx="1264.79" cy="87.38" fill="#97a1cb"></circle><circle r="5" cx="1308.26" cy="251.87" fill="#97a1cb"></circle><circle r="5" cx="1273.95" cy="385.97" fill="#97a1cb"></circle><circle r="5" cx="1298.66" cy="509.85" fill="#97a1cb"></circle><circle r="5" cx="1263.55" cy="651.58" fill="#97a1cb"></circle><circle r="5" cx="1407.81" cy="-87.86" fill="#97a1cb"></circle><circle r="5" cx="1409.79" cy="41.23" fill="#97a1cb"></circle><circle r="5" cx="1418.52" cy="196.36" fill="#97a1cb"></circle><circle r="5" cx="1388.66" cy="389.18" fill="#97a1cb"></circle><circle r="5" cx="1395.05" cy="548.91" fill="#97a1cb"></circle><circle r="5" cx="1393.89" cy="690.46" fill="#97a1cb"></circle><circle r="5" cx="1544.88" cy="-43" fill="#97a1cb"></circle><circle r="5" cx="1539.56" cy="55.34" fill="#97a1cb"></circle><circle r="5" cx="1596.92" cy="199.01" fill="#97a1cb"></circle><circle r="5" cx="1571.13" cy="699.16" fill="#97a1cb"></circle></g><defs><mask id="SvgjsMask1038"><rect width="1440" height="560" fill="#ffffff"></rect></mask><linearGradient x1="15.28%" y1="139.29%" x2="84.72%" y2="-39.29%" gradientUnits="userSpaceOnUse" id="SvgjsLinearGradient1039"><stop stop-color="rgba(33, 33, 33, 1)" offset="0.45"></stop><stop stop-color="rgba(33, 33, 33, 1)" offset="1"></stop></linearGradient><radialGradient id="SvgjsRadialGradient1040"><stop stop-color="#ffffff" offset="0.1"></stop><stop stop-color="rgba(46, 66, 151, 1)" offset="0.2"></stop><stop stop-color="rgba(46, 66, 151, 0)" offset="1"></stop></radialGradient></defs></svg>