<svg width="64" height="64" viewBox="0 0 64 64" fill="none" xmlns="http://www.w3.org/2000/svg">
<path d="M32 36.948C34.7614 36.948 37 34.7094 37 31.948C37 29.1866 34.7614 26.948 32 26.948C29.2386 26.948 27 29.1866 27 31.948C27 34.7094 29.2386 36.948 32 36.948Z" fill="#00D8FF"/>
<path d="M32 43.412C25.9903 43.5574 19.9956 42.7473 14.24 41.012C11.5812 40.1692 9.10147 38.8415 6.926 37.096C6.09586 36.4998 5.40454 35.7309 4.89948 34.8423C4.39443 33.9537 4.08758 32.9664 4 31.948C4 28.642 7.632 25.402 13.716 23.282C19.6255 21.4035 25.7998 20.4931 32 20.586C38.1174 20.5006 44.2091 21.3945 50.044 23.234C52.6046 24.0504 55.0003 25.3139 57.12 26.966C57.9359 27.5345 58.6169 28.2755 59.1146 29.1364C59.6123 29.9974 59.9146 30.9573 60 31.948C60 35.384 55.94 38.866 49.4 41.03C43.7559 42.7088 37.8877 43.5121 32 43.412ZM32 22.978C26.0682 22.8988 20.1617 23.7643 14.502 25.542C8.902 27.496 6.392 30.168 6.392 31.942C6.392 33.798 9.09 36.716 15.014 38.742C20.5201 40.3938 26.2532 41.1626 32 41.02C37.6328 41.1208 43.2478 40.3586 48.65 38.76C54.8 36.722 57.6 33.8 57.6 31.948C57.4991 31.3125 57.2675 30.7048 56.9198 30.1633C56.5721 29.6218 56.1159 29.1583 55.58 28.802C53.6835 27.3363 51.5434 26.2165 49.258 25.494C43.6761 23.7416 37.85 22.8922 32 22.978Z" fill="#00D8FF"/>
<path d="M20.64 56.8859C19.707 56.9074 18.785 56.681 17.968 56.2299C15.104 54.5779 14.112 49.8139 15.314 43.4839C16.6392 37.4261 18.9356 31.6225 22.114 26.2979C25.0954 20.9562 28.9123 16.1258 33.42 11.9899C35.4063 10.1794 37.6977 8.73503 40.188 7.72395C41.0887 7.30182 42.0712 7.08301 43.066 7.08301C44.0607 7.08301 45.0432 7.30182 45.944 7.72395C48.922 9.43995 49.908 14.6959 48.518 21.4419C47.1517 27.1711 44.9151 32.6568 41.886 37.7079C39.0094 42.9867 35.3127 47.775 30.934 51.8939C28.8755 53.7755 26.4866 55.2598 23.888 56.2719C22.8476 56.6581 21.7495 56.8657 20.64 56.8859ZM24.186 27.4859C21.1541 32.5846 18.9533 38.1334 17.666 43.9239C16.56 49.7539 17.622 53.2599 19.166 54.1519C20.766 55.0779 24.65 54.1999 29.366 50.0799C33.546 46.1339 37.0744 41.5504 39.82 36.4999C42.7218 31.671 44.8673 26.4262 46.182 20.9479C47.49 14.5979 46.36 10.7099 44.756 9.78595C44.1548 9.5556 43.5123 9.45249 42.8693 9.48312C42.2262 9.51376 41.5965 9.67749 41.02 9.96395C38.8033 10.8786 36.7654 12.1772 35 13.7999C30.6933 17.7615 27.0473 22.3858 24.2 27.4979L24.186 27.4859Z" fill="#00D8FF"/>
<path d="M43.3541 56.912C40.6441 56.912 37.2021 55.272 33.6181 52.19C29.0315 48.0165 25.15 43.1287 22.1241 37.716C18.9856 32.4647 16.7074 26.745 15.3761 20.774C14.7987 18.1469 14.6917 15.4383 15.0601 12.774C15.1453 11.7856 15.4462 10.8279 15.9418 9.96848C16.4373 9.10906 17.1153 8.36882 17.9281 7.79996C20.9021 6.07796 25.9481 7.84796 31.0981 12.42C35.3793 16.4643 39.0149 21.1414 41.8781 26.288C45.0147 31.4166 47.3167 37.011 48.6981 42.862C49.3003 45.5854 49.3932 48.3967 48.9721 51.154C48.8719 52.1708 48.553 53.1539 48.0372 54.0359C47.5215 54.9179 46.8211 55.678 45.9841 56.264C45.1804 56.7094 44.2727 56.933 43.3541 56.912ZM24.1941 36.512C27.0969 41.6848 30.8047 46.3627 35.1781 50.37C39.6761 54.24 43.2441 55.072 44.7781 54.17C46.3781 53.24 47.5581 49.444 46.3421 43.302C45.0098 37.7158 42.8019 32.3758 39.8001 27.48C37.0678 22.5542 33.5976 18.0757 29.5101 14.2C24.6621 9.89596 20.7301 8.93396 19.1281 9.86196C18.6288 10.2677 18.219 10.7726 17.9247 11.3447C17.6304 11.9169 17.4579 12.5438 17.4181 13.186C17.1001 15.5621 17.2037 17.9758 17.7241 20.316C19.0047 26.0262 21.1896 31.4952 24.1961 36.516L24.1941 36.512Z" fill="#00D8FF"/>
</svg>
