<svg xmlns="http://www.w3.org/2000/svg" version="1.1" xmlns:xlink="http://www.w3.org/1999/xlink" xmlns:svgjs="http://svgjs.com/svgjs" width="1440" height="560" preserveAspectRatio="none" viewBox="0 0 1440 560"><g mask="url(&quot;#SvgjsMask1000&quot;)" fill="none"><rect width="1440" height="560" x="0" y="0" fill="rgba(21, 24, 22, 1)"></rect><path d="M0,411.655C75.219,402.333,119.939,326.691,181.877,283.006C240.47,241.68,321.111,225.362,354.268,161.789C387.782,97.533,368.85,20.144,356.193,-51.213C343.894,-120.554,328.072,-191.094,282.198,-244.526C236.218,-298.081,170.839,-331.799,101.978,-347.306C35.727,-362.225,-31.613,-348.706,-96.863,-329.885C-162.382,-310.986,-229.414,-288.993,-275.243,-238.499C-321.57,-187.456,-344.577,-119.073,-350.529,-50.398C-356.28,15.955,-330.599,78.019,-308.11,140.709C-283.588,209.069,-267.894,284.031,-213.357,331.99C-155.171,383.158,-76.896,421.185,0,411.655" fill="#111312"></path><path d="M1440 1106.187C1551.0430000000001 1103.739 1677.95 1134.274 1763.68 1063.656 1849.167 993.238 1832.41 860.163 1866.5729999999999 754.809 1896.08 663.813 1955.281 582.113 1950.816 486.556 1946.126 386.195 1911.379 284.259 1841.224 212.337 1772.622 142.007 1670.506 123.08100000000002 1574.7649999999999 101.03300000000002 1484.035 80.13900000000001 1394.461 84.678 1301.416 88.02499999999998 1176.846 92.50599999999997 1012.674 25.076000000000022 936.807 123.98000000000002 859.185 225.173 979.008 368.036 989.105 495.171 996.413 587.194 969.533 676.017 987.8340000000001 766.498 1010.338 877.76 1016.259 1009.9490000000001 1107.017 1078.1309999999999 1197.914 1146.4180000000001 1326.338 1108.692 1440 1106.187" fill="#191d1a"></path></g><defs><mask id="SvgjsMask1000"><rect width="1440" height="560" fill="#ffffff"></rect></mask></defs></svg>